<?xml version="1.0" encoding="utf-8"?>
<!-- Generator: Adobe Illustrator 22.0.1, SVG Export Plug-In . SVG Version: 6.00 Build 0)  -->
<svg version="1.1" id="Layer_1" xmlns="http://www.w3.org/2000/svg" xmlns:xlink="http://www.w3.org/1999/xlink" x="0px" y="0px"
	 viewBox="0 0 161 50" style="enable-background:new 0 0 161 50;" xml:space="preserve">
<style type="text/css">
	.st0{fill:#3067DB;}
</style>
<g>
	<title>Artboard 3</title>
	<path class="st0" d="M5.7,34.3c-1.7-0.9-3-2.3-4-4c-0.9-1.7-1.4-3.6-1.4-5.6c0-1.9,0.5-3.9,1.4-5.5c0.9-1.7,2.3-3,4-4
		c1.8-1,3.8-1.5,5.8-1.5c2.4-0.1,4.7,0.7,6.7,2L16,19.1c-1.3-1-2.8-1.6-4.5-1.6c-1.3,0-2.6,0.3-3.7,1c-1,0.6-1.9,1.6-2.4,2.7
		c-0.6,1.1-0.9,2.4-0.8,3.7c0,1.3,0.3,2.5,0.8,3.6c1.2,2.3,3.5,3.7,6.1,3.7c1.6,0,3.2-0.6,4.5-1.6l2.2,3.2c-2,1.4-4.3,2.1-6.7,2.1
		C9.5,35.8,7.5,35.3,5.7,34.3z"/>
	<path class="st0" d="M27.9,17.7v5.5h7.7v3.2h-7.7v5.5h9.3v3.4H23.7v-21h13.4v3.4C37.1,17.7,27.9,17.7,27.9,17.7z"/>
	<path class="st0" d="M48.8,26.8h-1.3v8.5h-4.1v-21h7.5c1.2,0,2.5,0.2,3.6,0.7s2,1.2,2.7,2.2s1.1,2.2,1,3.4c0.1,1.4-0.4,2.8-1.4,3.8
		s-2.3,1.8-3.7,2.1l6.9,8.8h-5L48.8,26.8z M47.5,23.7H50c1.3,0,2.2-0.3,2.9-0.8s1.1-1.4,1-2.2c0-0.9-0.3-1.8-1-2.3
		c-0.7-0.6-1.7-0.8-3-0.8h-2.3L47.5,23.7z"/>
	<path class="st0" d="M68.5,35.3h-4.1v-21h4.1V35.3z"/>
	<path class="st0" d="M88.6,15.7c1.6,0.8,3,2.1,3.9,3.7s1.4,3.5,1.3,5.4c0,1.9-0.4,3.8-1.3,5.4s-2.3,2.9-3.9,3.8
		c-1.9,0.9-4,1.4-6.1,1.4h-6.8v-21h6.8C84.6,14.3,86.7,14.7,88.6,15.7z M87.6,30c1.3-1.2,2-3,2-5.3c0-2.2-0.7-3.9-2-5.2
		c-1.3-1.2-3.2-1.9-5.6-1.9h-2.2v14.2H82C84.5,31.9,86.3,31.3,87.6,30L87.6,30z"/>
	<path class="st0" d="M103.5,35.3h-4.1v-21h4.1V35.3z"/>
	<path class="st0" d="M122.8,30.5h-8.5l-1.7,4.8h-4.5l8.3-21h4.2l8.3,21h-4.5L122.8,30.5z M121.6,27.3l-3.1-8.7l-3.1,8.7H121.6z"/>
	<path class="st0" d="M152.1,14.3v21h-3.8L138,20.8v14.5h-4v-21h3.8L148,28.8V14.3H152.1z"/>
</g>
</svg>
